<svg width="20" height="22" viewBox="0 0 20 22" fill="none" xmlns="http://www.w3.org/2000/svg">
<path d="M2.12 21.2C1.537 21.2 1.03792 20.9924 0.62275 20.5773C0.207583 20.1621 0 19.663 0 19.08V4.24C0 3.657 0.207583 3.15792 0.62275 2.74275C1.03792 2.32758 1.537 2.12 2.12 2.12H6.5455C6.73983 1.50167 7.11967 0.99375 7.685 0.59625C8.25033 0.19875 8.86867 0 9.54 0C10.2467 0 10.8782 0.19875 11.4347 0.59625C11.9912 0.99375 12.3667 1.50167 12.561 2.12H16.96C17.543 2.12 18.0421 2.32758 18.4572 2.74275C18.8724 3.15792 19.08 3.657 19.08 4.24V19.08C19.08 19.663 18.8724 20.1621 18.4572 20.5773C18.0421 20.9924 17.543 21.2 16.96 21.2H2.12ZM2.12 19.08H16.96V4.24H14.84V7.42H4.24V4.24H2.12V19.08ZM9.54 4.24C9.84033 4.24 10.0921 4.13842 10.2953 3.93525C10.4984 3.73208 10.6 3.48033 10.6 3.18C10.6 2.87967 10.4984 2.62792 10.2953 2.42475C10.0921 2.22158 9.84033 2.12 9.54 2.12C9.23967 2.12 8.98792 2.22158 8.78475 2.42475C8.58158 2.62792 8.48 2.87967 8.48 3.18C8.48 3.48033 8.58158 3.73208 8.78475 3.93525C8.98792 4.13842 9.23967 4.24 9.54 4.24Z" fill="#5C5C5C"/>
</svg>
